<svg xmlns="http://www.w3.org/2000/svg" viewBox="0 0 209.5 104"><defs><style>.cls-1{fill:#009aea;}.cls-2{fill:#0e52a0;}</style></defs><title>Fichier 346</title><g id="Calque_2" data-name="Calque 2"><g id="Calque_1-2" data-name="Calque 1"><path class="cls-1" d="M14.47,67.94V80.48h-2.7V67.94H8.41v-2h9.42v2Z"/><path class="cls-1" d="M24.64,75.11A9.4,9.4,0,0,1,24,79.17c-.55,1-1.64,1.55-3.26,1.55s-2.77-.49-3.32-1.49a8.62,8.62,0,0,1-.59-3.8,8,8,0,0,1,.67-3.73,3.45,3.45,0,0,1,3.3-1.61c1.6,0,2.67.46,3.22,1.39A7.85,7.85,0,0,1,24.64,75.11ZM22.1,74.4a7.08,7.08,0,0,0-.16-1.83,1.14,1.14,0,0,0-1.16-.85,1.25,1.25,0,0,0-1.24,1,6.28,6.28,0,0,0-.18,1.73v2a6.26,6.26,0,0,0,.16,1.69,1.19,1.19,0,0,0,1.24.94,1.14,1.14,0,0,0,1.18-.88,5.72,5.72,0,0,0,.16-1.63Z"/><path class="cls-1" d="M33.92,70.33c0,.23,0,.48,0,.76s0,.57,0,.87v9a3.23,3.23,0,0,1-1.09,2.79,5.05,5.05,0,0,1-3,.69,4.23,4.23,0,0,1-2.6-.65,2.78,2.78,0,0,1-.9-2.37H29c0,1,.35,1.57,1.06,1.57a1.07,1.07,0,0,0,1-.55,3.55,3.55,0,0,0,.26-1.61V79.21A2.8,2.8,0,0,1,29,80.34a2.51,2.51,0,0,1-2.48-1.55,8.28,8.28,0,0,1-.46-3.14,12.75,12.75,0,0,1,.38-3.79A2.43,2.43,0,0,1,29,70.09,2.54,2.54,0,0,1,31.4,71.5V70.33Zm-2.56,5.22a11.83,11.83,0,0,0-.2-2.58c-.23-.83-.62-1.25-1.19-1.25s-1,.35-1.15,1a13.25,13.25,0,0,0-.2,2.86c0,2.13.45,3.2,1.35,3.2S31.36,77.74,31.36,75.55Z"/><path class="cls-1" d="M43.52,70.33c0,.23,0,.48,0,.76s0,.57,0,.87v9a3.23,3.23,0,0,1-1.09,2.79,5,5,0,0,1-3,.69,4.19,4.19,0,0,1-2.59-.65,2.76,2.76,0,0,1-.91-2.37h2.66c0,1,.35,1.57,1.07,1.57a1.06,1.06,0,0,0,1-.55,3.42,3.42,0,0,0,.26-1.61V79.21a2.78,2.78,0,0,1-2.29,1.13,2.52,2.52,0,0,1-2.48-1.55,8.28,8.28,0,0,1-.46-3.14,13.11,13.11,0,0,1,.38-3.79,2.44,2.44,0,0,1,2.5-1.77A2.53,2.53,0,0,1,41,71.5V70.33ZM41,75.55a11.22,11.22,0,0,0-.2-2.58c-.22-.83-.62-1.25-1.18-1.25s-1,.35-1.15,1a12.61,12.61,0,0,0-.2,2.86c0,2.13.45,3.2,1.35,3.2S41,77.74,41,75.55Z"/><path class="cls-1" d="M47.79,75.69v.91a4.66,4.66,0,0,0,.29,1.91,1,1,0,0,0,1,.58c.82,0,1.24-.65,1.24-2h2.37a4,4,0,0,1-.93,2.75,3.68,3.68,0,0,1-2.69.85,3.28,3.28,0,0,1-3.2-1.55,8.32,8.32,0,0,1-.57-3.66,8.23,8.23,0,0,1,.65-3.75,3.38,3.38,0,0,1,3.26-1.67,3,3,0,0,1,3.1,1.69,11.25,11.25,0,0,1,.44,3.91Zm2.5-1.39a10.88,10.88,0,0,0-.06-1.39c-.12-.79-.5-1.19-1.12-1.19s-1.11.45-1.24,1.33a5.54,5.54,0,0,0-.06.6c0,.2,0,.42,0,.65Z"/><path class="cls-1" d="M59.57,80.48v-6.8a4.32,4.32,0,0,0-.14-1.35,1,1,0,0,0-1-.61,1.17,1.17,0,0,0-1,.64,3,3,0,0,0-.37,1.5v6.62H54.52V72c0-.34,0-.65,0-.92s0-.51-.06-.73H57l0,1.13a2.91,2.91,0,0,1,2.5-1.37,2.38,2.38,0,0,1,2.05.79,3.84,3.84,0,0,1,.55,2.31v7.29Z"/><path class="cls-1" d="M71.93,75.37A10.31,10.31,0,0,1,71.45,79,2.44,2.44,0,0,1,69,80.68a2.53,2.53,0,0,1-2.34-1.3l0,1.1h-2.4c0-.68.06-1.32.06-1.91V65.92h2.5v5.37a2.91,2.91,0,0,1,2.47-1.2,2.22,2.22,0,0,1,2.32,1.53A12.91,12.91,0,0,1,71.93,75.37Zm-2.49-.13a11,11,0,0,0-.19-2.43c-.18-.73-.55-1.09-1.08-1.09s-1,.38-1.21,1.13a10.45,10.45,0,0,0-.22,2.53A10.58,10.58,0,0,0,67,77.93c.2.78.59,1.16,1.17,1.16s1-.51,1.16-1.52A12.61,12.61,0,0,0,69.44,75.24Z"/><path class="cls-1" d="M78.86,80.48l0-1.09a2.73,2.73,0,0,1-2.42,1.29c-1.76,0-2.64-1-2.64-2.86V70.33h2.5V77.1a3.87,3.87,0,0,0,.16,1.31,1,1,0,0,0,1,.64,1.12,1.12,0,0,0,1.09-.74,3.41,3.41,0,0,0,.28-1.41V70.33h2.49v8.48c0,.17,0,.4,0,.67s0,.61.07,1Z"/><path class="cls-1" d="M88.6,72.39l-.21,0h-.21c-1.44,0-2.15.82-2.15,2.45v5.68h-2.5V72.17c0-.43,0-.8,0-1.1s0-.55,0-.74h2.4l0,1.31a2.66,2.66,0,0,1,2.57-1.49h.12Z"/><path class="cls-1" d="M97.3,70.33c0,.23,0,.48,0,.76s0,.57,0,.87v9a3.23,3.23,0,0,1-1.09,2.79,5,5,0,0,1-3,.69,4.19,4.19,0,0,1-2.59-.65,2.76,2.76,0,0,1-.91-2.37h2.66c0,1,.35,1.57,1.06,1.57a1.07,1.07,0,0,0,1-.55,3.42,3.42,0,0,0,.26-1.61V79.21a2.78,2.78,0,0,1-2.29,1.13,2.52,2.52,0,0,1-2.48-1.55,8.28,8.28,0,0,1-.46-3.14,13.11,13.11,0,0,1,.38-3.79,2.44,2.44,0,0,1,2.5-1.77,2.53,2.53,0,0,1,2.43,1.41V70.33Zm-2.56,5.22a11.22,11.22,0,0,0-.2-2.58c-.23-.83-.62-1.25-1.18-1.25s-1,.35-1.15,1a12.61,12.61,0,0,0-.2,2.86c0,2.13.45,3.2,1.35,3.2S94.74,77.74,94.74,75.55Z"/><rect class="cls-1" y="97.33" width="209.5" height="6.67"/><path class="cls-2" d="M9.62,43.37h5c4,0,4.74,2.64,4.74,7.22,0,2.25.31,7.29-4.81,7.29h-5Zm3,12.34h1.47c1.86,0,2.25-1.4,2.25-5,0-2.64,0-5.05-2.09-5.05H12.73Z"/><path class="cls-2" d="M24.75,43.37v2.25H22V43.37Zm0,14.51H22V47.8h2.79Z"/><path class="cls-2" d="M29.87,53.31c0,1.24,0,3,1.32,3,1,0,1.24-.93,1.24-1.78H35.3a3.69,3.69,0,0,1-1.08,2.64,4.38,4.38,0,0,1-3,1c-3.64,0-4.11-2.25-4.11-5.43,0-2.79.39-5.12,4.11-5.12s4.27,2.48,4.11,5.74Zm2.64-1.56c0-1,0-2.4-1.32-2.4s-1.32,1.55-1.32,2.4Z"/><path class="cls-2" d="M42,58V43.37h3V55.48h4.58v2.4H42Z"/><path class="cls-2" d="M53.77,43.37v2.25H50.9V43.37Zm0,14.51H50.9V47.8h2.87Z"/><path class="cls-2" d="M56.33,43.37H59.2v5.36h.08a2.53,2.53,0,0,1,2.33-1.17c2.87,0,2.79,3.19,2.79,5.2s.08,5.36-2.87,5.36a2.54,2.54,0,0,1-2.4-1.32h-.08v1.08H56.33Zm5.2,9.32c0-2,0-3.42-1.24-3.42s-1.16,1.48-1.16,3.49c0,2.56.15,3.65,1.16,3.65s1.24-1.09,1.24-3.72Z"/><path class="cls-2" d="M69,53.31c0,1.24.08,3,1.32,3,1,0,1.24-.93,1.24-1.78h2.87a3.7,3.7,0,0,1-1.09,2.64,4.33,4.33,0,0,1-3,1c-3.65,0-4.11-2.25-4.11-5.43,0-2.79.38-5.12,4.11-5.12s4.27,2.48,4.11,5.74Zm2.56-1.56c0-1,.08-2.4-1.32-2.4s-1.32,1.55-1.32,2.4Z"/><path class="cls-2" d="M79.14,47.8v1.32h0a2.58,2.58,0,0,1,2.64-1.48V50.2c-2.48-.15-2.56,1.32-2.56,2.33V58H76.43V47.8Z"/><path class="cls-2" d="M90.78,56a14.59,14.59,0,0,0,.16,1.86H88.3l-.15-1.31h-.08a2.76,2.76,0,0,1-2.64,1.55c-1.94,0-2.72-1.48-2.72-3.26,0-3.34,2.56-3.49,5.2-3.49v-.78c0-.85-.15-1.47-1.16-1.47s-1.09.77-1.09,1.55H83a3,3,0,0,1,1-2.48,5.14,5.14,0,0,1,2.64-.7c3.57,0,4,1.55,4,3.41V56Zm-5.2-1.24c0,.7.16,1.63,1,1.63,1.71,0,1.4-2.25,1.4-3.34-1.32,0-2.41-.15-2.41,1.71Z"/><path class="cls-2" d="M96.21,43.37V57.88H93.34V43.37Z"/><path class="cls-2" d="M101.34,53.31c0,1.24.07,3,1.32,3,1,0,1.24-.93,1.24-1.78h2.87a3.7,3.7,0,0,1-1.09,2.64,4.35,4.35,0,0,1-3,1c-3.65,0-4.12-2.25-4.12-5.43,0-2.79.39-5.12,4.12-5.12s4.26,2.48,4.11,5.74ZM104,51.75c0-1,.08-2.4-1.31-2.4s-1.32,1.55-1.32,2.4Z"/><path class="cls-2" d="M111.66,48.81h0a2.37,2.37,0,0,1,1-.94,3.12,3.12,0,0,1,1.4-.31,2.33,2.33,0,0,1,2.56,2.25V58h-2.79V51c0-.93-.16-1.63-1.09-1.63s-1.08.7-1.08,1.63v7h-2.8V47.8h2.8Z"/><path class="cls-2" d="M10.55,4.11c-.23-1.63-1.08-1.63-2.79-1.7-.85-.08-1.09,0-1.09-1.09,0-.93,0-1.32.86-1.32,2.63,0,5.27.08,7.91.08C21.11.08,26.69,0,32.28,0c.54,0,.85.08.85.62,0,.23-.46,3.73-.85,6.91-.08.62-.31.85-1.48.85s-1.08-.08-1.31-.85c-.63-3.57-.7-3.81-2.1-4.12A44.21,44.21,0,0,0,21,3c-1.86,0-1.94.38-2,.85-.08,3-.08,8.38-.15,9.39,4.65-.08,6.9-.08,7.76-.86.46-.38.62-1,.77-2.25.08-.46.16-.54,1.32-.54s1.17.39,1.17.78c0,1.24-.16,2.33-.16,4.5,0,2.4.16,4.11.16,4.65,0,.86-.47.93-1.17.93-1.16,0-1.16-.15-1.4-1.55-.38-1.63-.62-2.4-3.33-2.56a37.48,37.48,0,0,0-5-.08c-.08,1.71-.15,8.77.31,10,.31.86.62.86,3.8.94.47,0,.78.07.78,1.08s0,1.32-.85,1.32c-2.56,0-5-.15-7.61-.15s-5.27.15-7.91.15c-.54,0-.78-.15-.78-.62,0-1.4,0-1.55.55-1.55,3.33-.47,3.41-.47,3.57-5.36C10.71,18.54,10.79,6.05,10.55,4.11Z"/><path class="cls-2" d="M66.57,26.23c-4.65,3.26-10.86,3.26-15.51,3.26-1.56,0-8.38-.08-12.5,0H37.24c-.38,0-.46-.16-.46-1.32,0-.7,0-.86.62-.94,3.65-.38,3.65-.38,3.8-5.27.08-3.49.16-15.91-.08-17.77C40.89,2.56,40,2.56,38.33,2.48c-.85,0-1.09,0-1.09-1.08,0-.93,0-1.32.86-1.32,2,0,4,.15,5.9.15,3.1,0,6.28-.15,9.46-.15,6.21,0,10,.39,13,2.25,5.2,3.1,6,8.22,6,11.64S71.62,22.81,66.57,26.23Zm-16.83-22c-.31,2.17-.31,13.19-.24,16.37,0,5.43,0,6.05,3.65,6.05a13.18,13.18,0,0,0,5.67-1.24c4.57-2.25,5-8.61,5-10.94,0-3.88-.93-8.07-4.27-10.32a11,11,0,0,0-6-1.55C50.36,2.64,49.89,3,49.74,4.27Z"/><path class="cls-2" d="M87.76,24c0,2.94.62,3.1,3,3.1,1.56,0,1.63.08,1.63.93,0,1.32-.07,1.48-.93,1.48-2.4,0-4.73-.16-7.14-.16-2.63,0-5.27.16-7.91.16-.85,0-.93-.08-.93-1,0-1.09,0-1.17,1.08-1.32,1.63-.16,2.64-.31,2.8-2.72.15-3.26.15-7.37.15-14.51V6.44c0-3.34-.39-3.8-2.48-4-1.47-.07-1.55-.07-1.55-1.16S75.5,0,76.35,0c1.55,0,3.73.08,9.08.08,9.08,0,12.1,0,15.21,1.86a7.53,7.53,0,0,1,3.49,6.6c0,6.51-6,9.54-12.11,9.54-1.39,0-2.71-.08-4.26-.16Zm1.7-8.62c5.75,0,5.82-4.57,5.82-6.13,0-6.51-4.11-6.51-5.74-6.51-1.39,0-1.78,0-1.78,1.08-.08,3.49-.16,8-.08,11.49C88.3,15.29,88.92,15.36,89.46,15.36Z"/></g></g></svg>