<?xml version="1.0" encoding="UTF-8"?><svg id="Ebene_1" xmlns="http://www.w3.org/2000/svg" viewBox="0 0 2000 2000"><defs><style>.cls-1{fill:none;stroke:#000;stroke-miterlimit:10;stroke-width:14px;}</style></defs><path class="cls-1" d="m1029.92,1750.98c103.1,27.47,185.32,28.37,217.8,12.88,19.94-9.51,36.55-17.43,41.67-33.75,2.82-9,2.44-21.5,12.56-30.2,4.11-3.54,8.24-4.96,11.6-6.05,27.67-8.98,49.17-11.24,49.17-11.24,22.4-2.35,42.62-4.41,70.57-4.04,30.57.4,35.59,3.24,38.06,4.86,6.42,4.22,13.93,12.27,24.87,11.75,3.34-.16,5.79-1.06,6.74-1.4,18.14-6.39,62-8.83,92.63-8.17,1.21.03-.42.03,48.23,3.62,19.17,1.41,23.63,1.71,30.23,4.15,17.1,6.33,13.37,14.84,35.61,29.78,17.49,11.75,32.28,15.14,38.97,23.62.8,1.01,3.97,5.25,9.5,7.16.96.33,3.48,1.18,6.45.91,4.93-.45,8.16-3.7,12.14-7.61,17.57-17.3,17.1-15.48,19.79-19.57,4.45-6.78,4.61-10.04,8.87-12.02,3.88-1.8,7.32-.75,13.43.26,11.29,1.87,14.6.76,22.35,1.66,11.93,1.38,34.78,7.55,61.52,23.24,31.43,18.43,36.57,31.43,46.52,28.24,16.4-5.27,13.3-44.13,26.75-45.83,1.65-.21,3.3.18,22.13,16,8.86,7.44,13.41,11.49,20.35,17.01,21.06,16.74,24.43,15.48,25.43,14.93,5.35-2.93-.61-16.22,7.7-23.56,3.95-3.5,6.74-1.75,10.09-5.68,5.48-6.41,1.51-15.06,5.58-17.05,3.27-1.6,6.7,3.58,13.52,2.09,2.53-.55,2.56-1.37,5.08-2.08,5.5-1.53,10.02,1.07,15.09,2.93,4.32,1.58,2.61.27,20.29,3.28,12.17,2.07,18.26,3.11,21.16,4.36,7.99,3.45,9.91,8.96,18.96,17.78,27.25,26.55,33.08,30.12,40.52,30.36.9.03,11.37.21,19.18-7.03,13.87-12.86,4.11-34.96,11.73-39,13.21-7.01,53.11,53.76,72.15,45.29,8.27-3.68,9.43-19,18.18-19.19,4.82-.1,5.91,4.51,11.68,5.94,10.35,2.57,16.9-9.81,28.6-14,15.23-5.45,28.01,6.97,53.35,18.14,13.01,5.74,32.46,12.53,58.7,15.44"/><path class="cls-1" d="m-722.74,1304.32c103.1,27.47,185.32,28.37,217.8,12.88,19.94-9.51,36.55-17.43,41.67-33.75,2.82-9,2.44-21.5,12.56-30.2,4.11-3.54,8.24-4.96,11.6-6.05,27.67-8.98,49.17-11.24,49.17-11.24,22.4-2.35,42.62-4.41,70.57-4.04,30.57.4,35.59,3.24,38.06,4.86,6.42,4.22,13.93,12.27,24.87,11.75,3.34-.16,5.79-1.06,6.74-1.4,18.14-6.39,62-8.83,92.63-8.17,1.21.03-.42.03,48.23,3.62,19.17,1.41,23.63,1.71,30.23,4.15,17.1,6.33,13.37,14.84,35.61,29.78,17.49,11.75,32.28,15.14,38.97,23.62.8,1.01,3.97,5.25,9.5,7.16.96.33,3.48,1.18,6.45.91,4.93-.45,8.16-3.7,12.14-7.61,17.57-17.3,17.1-15.48,19.79-19.57,4.45-6.78,4.61-10.04,8.87-12.02,3.88-1.8,7.32-.75,13.43.26,11.29,1.87,14.6.76,22.35,1.66,11.93,1.38,34.78,7.55,61.52,23.24,31.43,18.43,36.57,31.43,46.52,28.24,16.4-5.27,13.3-44.13,26.75-45.83,1.65-.21,3.3.18,22.13,16,8.86,7.44,13.41,11.49,20.35,17.01,21.06,16.74,24.43,15.48,25.43,14.93,5.35-2.93-.61-16.22,7.7-23.56,3.95-3.5,6.74-1.75,10.09-5.68,5.48-6.41,1.51-15.06,5.58-17.05,3.27-1.6,6.7,3.58,13.52,2.09,2.53-.55,2.56-1.37,5.08-2.08,5.5-1.53,10.02,1.07,15.09,2.93,4.32,1.58,2.61.27,20.29,3.28,12.17,2.07,18.26,3.11,21.16,4.36,7.99,3.45,9.91,8.96,18.96,17.78,27.25,26.55,33.08,30.12,40.52,30.36.9.03,11.37.21,19.18-7.03,13.87-12.86,4.11-34.96,11.73-39,13.21-7.01,53.11,53.76,72.15,45.29,8.27-3.68,9.43-19,18.18-19.19,4.82-.1,5.91,4.51,11.68,5.94,10.35,2.57,16.9-9.81,28.6-14,15.23-5.45,28.01,6.97,53.35,18.14,13.01,5.74,32.46,12.53,58.7,15.44"/><path class="cls-1" d="m457.81,1525.26c103.1,27.47,185.32,28.37,217.8,12.88,19.94-9.51,36.55-17.43,41.67-33.75,2.82-9,2.44-21.5,12.56-30.2,4.11-3.54,8.24-4.96,11.6-6.05,27.67-8.98,49.17-11.24,49.17-11.24,22.4-2.35,42.62-4.41,70.57-4.04,30.57.4,35.59,3.24,38.06,4.86,6.42,4.22,13.93,12.27,24.87,11.75,3.34-.16,5.79-1.06,6.74-1.4,18.14-6.39,62-8.83,92.63-8.17,1.21.03-.42.03,48.23,3.62,19.17,1.41,23.63,1.71,30.23,4.15,17.1,6.33,13.37,14.84,35.61,29.78,17.49,11.75,32.28,15.14,38.97,23.62.8,1.01,3.97,5.25,9.5,7.16.96.33,3.48,1.18,6.45.91,4.93-.45,8.16-3.7,12.14-7.61,17.57-17.3,17.1-15.48,19.79-19.57,4.45-6.78,4.61-10.04,8.87-12.02,3.88-1.8,7.32-.75,13.43.26,11.29,1.87,14.6.76,22.35,1.66,11.93,1.38,34.78,7.55,61.52,23.24,31.43,18.43,36.57,31.43,46.52,28.24,16.4-5.27,13.3-44.13,26.75-45.83,1.65-.21,3.3.18,22.13,16,8.86,7.44,13.41,11.49,20.35,17.01,21.06,16.74,24.43,15.48,25.43,14.93,5.35-2.93-.61-16.22,7.7-23.56,3.95-3.5,6.74-1.75,10.09-5.68,5.48-6.41,1.51-15.06,5.58-17.05,3.27-1.6,6.7,3.58,13.52,2.09,2.53-.55,2.56-1.37,5.08-2.08,5.5-1.53,10.02,1.07,15.09,2.93,4.32,1.58,2.61.27,20.29,3.28,12.17,2.07,18.26,3.11,21.16,4.36,7.99,3.45,9.91,8.96,18.96,17.78,27.25,26.55,33.08,30.12,40.52,30.36.9.03,11.37.21,19.18-7.03,13.87-12.86,4.11-34.96,11.73-39,13.21-7.01,53.11,53.76,72.15,45.29,8.27-3.68,9.43-19,18.18-19.19,4.82-.1,5.91,4.51,11.68,5.94,10.35,2.57,16.9-9.81,28.6-14,15.23-5.45,28.01,6.97,53.35,18.14,13.01,5.74,32.46,12.53,58.7,15.44"/><path class="cls-1" d="m907.08,120.07c103.1,27.47,185.32,28.37,217.8,12.88,19.94-9.51,36.55-17.43,41.67-33.75,2.82-9,2.44-21.5,12.56-30.2,4.11-3.54,8.24-4.96,11.6-6.05,27.67-8.98,49.17-11.24,49.17-11.24,22.4-2.35,42.62-4.41,70.57-4.04,30.57.4,35.59,3.24,38.06,4.86,6.42,4.22,13.93,12.27,24.87,11.75,3.34-.16,5.79-1.06,6.74-1.4,18.14-6.39,62-8.83,92.63-8.17,1.21.03-.42.03,48.23,3.62,19.17,1.41,23.63,1.71,30.23,4.15,17.1,6.33,13.37,14.84,35.61,29.78,17.49,11.75,32.28,15.14,38.97,23.62.8,1.01,3.97,5.25,9.5,7.16.96.33,3.48,1.18,6.45.91,4.93-.45,8.16-3.7,12.14-7.61,17.57-17.3,17.1-15.48,19.79-19.57,4.45-6.78,4.61-10.04,8.87-12.02,3.88-1.8,7.32-.75,13.43.26,11.29,1.87,14.6.76,22.35,1.66,11.93,1.38,34.78,7.55,61.52,23.24,31.43,18.43,36.57,31.43,46.52,28.24,16.4-5.27,13.3-44.13,26.75-45.83,1.65-.21,3.3.18,22.13,16,8.86,7.44,13.41,11.49,20.35,17.01,21.06,16.74,24.43,15.48,25.43,14.93,5.35-2.93-.61-16.22,7.7-23.56,3.95-3.5,6.74-1.75,10.09-5.68,5.48-6.41,1.51-15.06,5.58-17.05,3.27-1.6,6.7,3.58,13.52,2.09,2.53-.55,2.56-1.37,5.08-2.08,5.5-1.53,10.02,1.07,15.09,2.93,4.32,1.58,2.61.27,20.29,3.28,12.17,2.07,18.26,3.11,21.16,4.36,7.99,3.45,9.91,8.96,18.96,17.78,27.25,26.55,33.08,30.12,40.52,30.36.9.03,11.37.21,19.18-7.03,13.87-12.86,4.11-34.96,11.73-39,13.21-7.01,53.11,53.76,72.15,45.29,8.27-3.68,9.43-19,18.18-19.19,4.82-.1,5.91,4.51,11.68,5.94,10.35,2.57,16.9-9.81,28.6-14,15.23-5.45,28.01,6.97,53.35,18.14,13.01,5.74,32.46,12.53,58.7,15.44"/><path class="cls-1" d="m-538.4,399.05c103.1,27.47,185.32,28.37,217.8,12.88,19.94-9.51,36.55-17.43,41.67-33.75,2.82-9,2.44-21.5,12.56-30.2,4.11-3.54,8.24-4.96,11.6-6.05,27.67-8.98,49.17-11.24,49.17-11.24,22.4-2.35,42.62-4.41,70.57-4.04,30.57.4,35.59,3.24,38.06,4.86,6.42,4.22,13.93,12.27,24.87,11.75,3.34-.16,5.79-1.06,6.74-1.4,18.14-6.39,62-8.83,92.63-8.17,1.21.03-.42.03,48.23,3.62,19.17,1.41,23.63,1.71,30.23,4.15,17.1,6.33,13.37,14.84,35.61,29.78,17.49,11.75,32.28,15.14,38.97,23.62.8,1.01,3.97,5.25,9.5,7.16.96.33,3.48,1.18,6.45.91,4.93-.45,8.16-3.7,12.14-7.61,17.57-17.3,17.1-15.48,19.79-19.57,4.45-6.78,4.61-10.04,8.87-12.02,3.88-1.8,7.32-.75,13.43.26,11.29,1.87,14.6.76,22.35,1.66,11.93,1.38,34.78,7.55,61.52,23.24,31.43,18.43,36.57,31.43,46.52,28.24,16.4-5.27,13.3-44.13,26.75-45.83,1.65-.21,3.3.18,22.13,16,8.86,7.44,13.41,11.49,20.35,17.01,21.06,16.74,24.43,15.48,25.43,14.93,5.35-2.93-.61-16.22,7.7-23.56,3.95-3.5,6.74-1.75,10.09-5.68,5.48-6.41,1.51-15.06,5.58-17.05,3.27-1.6,6.7,3.58,13.52,2.09,2.53-.55,2.56-1.37,5.08-2.08,5.5-1.53,10.02,1.07,15.09,2.93,4.32,1.58,2.61.27,20.29,3.28,12.17,2.07,18.26,3.11,21.16,4.36,7.99,3.45,9.91,8.96,18.96,17.78,27.25,26.55,33.08,30.12,40.52,30.36.9.03,11.37.21,19.18-7.03,13.87-12.86,4.11-34.96,11.73-39,13.21-7.01,53.11,53.76,72.15,45.29,8.27-3.68,9.43-19,18.18-19.19,4.82-.1,5.91,4.51,11.68,5.94,10.35,2.57,16.9-9.81,28.6-14,15.23-5.45,28.01,6.97,53.35,18.14,13.01,5.74,32.46,12.53,58.7,15.44"/><path class="cls-1" d="m828.36,889.6c103.1,27.47,185.32,28.37,217.8,12.88,19.94-9.51,36.55-17.43,41.67-33.75,2.82-9,2.44-21.5,12.56-30.2,4.11-3.54,8.24-4.96,11.6-6.05,27.67-8.98,49.17-11.24,49.17-11.24,22.4-2.35,42.62-4.41,70.57-4.04,30.57.4,35.59,3.24,38.06,4.86,6.42,4.22,13.93,12.27,24.87,11.75,3.34-.16,5.79-1.06,6.74-1.4,18.14-6.39,62-8.83,92.63-8.17,1.21.03-.42.03,48.23,3.62,19.17,1.41,23.63,1.71,30.23,4.15,17.1,6.33,13.37,14.84,35.61,29.78,17.49,11.75,32.28,15.14,38.97,23.62.8,1.01,3.97,5.25,9.5,7.16.96.33,3.48,1.18,6.45.91,4.93-.45,8.16-3.7,12.14-7.61,17.57-17.3,17.1-15.48,19.79-19.57,4.45-6.78,4.61-10.04,8.87-12.02,3.88-1.8,7.32-.75,13.43.26,11.29,1.87,14.6.76,22.35,1.66,11.93,1.38,34.78,7.55,61.52,23.24,31.43,18.43,36.57,31.43,46.52,28.24,16.4-5.27,13.3-44.13,26.75-45.83,1.65-.21,3.3.18,22.13,16,8.86,7.44,13.41,11.49,20.35,17.01,21.06,16.74,24.43,15.48,25.43,14.93,5.35-2.93-.61-16.22,7.7-23.56,3.95-3.5,6.74-1.75,10.09-5.68,5.48-6.41,1.51-15.06,5.58-17.05,3.27-1.6,6.7,3.58,13.52,2.09,2.53-.55,2.56-1.37,5.08-2.08,5.5-1.53,10.02,1.07,15.09,2.93,4.32,1.58,2.61.27,20.29,3.28,12.17,2.07,18.26,3.11,21.16,4.36,7.99,3.45,9.91,8.96,18.96,17.78,27.25,26.55,33.08,30.12,40.52,30.36.9.03,11.37.21,19.18-7.03,13.87-12.86,4.11-34.96,11.73-39,13.21-7.01,53.11,53.76,72.15,45.29,8.27-3.68,9.43-19,18.18-19.19,4.82-.1,5.91,4.51,11.68,5.94,10.35,2.57,16.9-9.81,28.6-14,15.23-5.45,28.01,6.97,53.35,18.14,13.01,5.74,32.46,12.53,58.7,15.44"/><path class="cls-1" d="m393.56,680.11c103.1,27.47,185.32,28.37,217.8,12.88,19.94-9.51,36.55-17.43,41.67-33.75,2.82-9,2.44-21.5,12.56-30.2,4.11-3.54,8.24-4.96,11.6-6.05,27.67-8.98,49.17-11.24,49.17-11.24,22.4-2.35,42.62-4.41,70.57-4.04,30.57.4,35.59,3.24,38.06,4.86,6.42,4.22,13.93,12.27,24.87,11.75,3.34-.16,5.79-1.06,6.74-1.4,18.14-6.39,62-8.83,92.63-8.17,1.21.03-.42.03,48.23,3.62,19.17,1.41,23.63,1.71,30.23,4.15,17.1,6.33,13.37,14.84,35.61,29.78,17.49,11.75,32.28,15.14,38.97,23.62.8,1.01,3.97,5.25,9.5,7.16.96.33,3.48,1.18,6.45.91,4.93-.45,8.16-3.7,12.14-7.61,17.57-17.3,17.1-15.48,19.79-19.57,4.45-6.78,4.61-10.04,8.87-12.02,3.88-1.8,7.32-.75,13.43.26,11.29,1.87,14.6.76,22.35,1.66,11.93,1.38,34.78,7.55,61.52,23.24,31.43,18.43,36.57,31.43,46.52,28.24,16.4-5.27,13.3-44.13,26.75-45.83,1.65-.21,3.3.18,22.13,16,8.86,7.44,13.41,11.49,20.35,17.01,21.06,16.74,24.43,15.48,25.43,14.93,5.35-2.93-.61-16.22,7.7-23.56,3.95-3.5,6.74-1.75,10.09-5.68,5.48-6.41,1.51-15.06,5.58-17.05,3.27-1.6,6.7,3.58,13.52,2.09,2.53-.55,2.56-1.37,5.08-2.08,5.5-1.53,10.02,1.07,15.09,2.93,4.32,1.58,2.61.27,20.29,3.28,12.17,2.07,18.26,3.11,21.16,4.36,7.99,3.45,9.91,8.96,18.96,17.78,27.25,26.55,33.08,30.12,40.52,30.36.9.03,11.37.21,19.18-7.03,13.87-12.86,4.11-34.96,11.73-39,13.21-7.01,53.11,53.76,72.15,45.29,8.27-3.68,9.43-19,18.18-19.19,4.82-.1,5.91,4.51,11.68,5.94,10.35,2.57,16.9-9.81,28.6-14,15.23-5.45,28.01,6.97,53.35,18.14,13.01,5.74,32.46,12.53,58.7,15.44"/><path class="cls-1" d="m-617.13,790.77c103.1,27.47,185.32,28.37,217.8,12.88,19.94-9.51,36.55-17.43,41.67-33.75,2.82-9,2.44-21.5,12.56-30.2,4.11-3.54,8.24-4.96,11.6-6.05,27.67-8.98,49.17-11.24,49.17-11.24,22.4-2.35,42.62-4.41,70.57-4.04,30.57.4,35.59,3.24,38.06,4.86,6.42,4.22,13.93,12.27,24.87,11.75,3.34-.16,5.79-1.06,6.74-1.4,18.14-6.39,62-8.83,92.63-8.17,1.21.03-.42.03,48.23,3.62,19.17,1.41,23.63,1.71,30.23,4.15,17.1,6.33,13.37,14.84,35.61,29.78,17.49,11.75,32.28,15.14,38.97,23.62.8,1.01,3.97,5.25,9.5,7.16.96.33,3.48,1.18,6.45.91,4.93-.45,8.16-3.7,12.14-7.61,17.57-17.3,17.1-15.48,19.79-19.57,4.45-6.78,4.61-10.04,8.87-12.02,3.88-1.8,7.32-.75,13.43.26,11.29,1.87,14.6.76,22.35,1.66,11.93,1.38,34.78,7.55,61.52,23.24,31.43,18.43,36.57,31.43,46.52,28.24,16.4-5.27,13.3-44.13,26.75-45.83,1.65-.21,3.3.18,22.13,16,8.86,7.44,13.41,11.49,20.35,17.01,21.06,16.74,24.43,15.48,25.43,14.93,5.35-2.93-.61-16.22,7.7-23.56,3.95-3.5,6.74-1.75,10.09-5.68,5.48-6.41,1.51-15.06,5.58-17.05,3.27-1.6,6.7,3.58,13.52,2.09,2.53-.55,2.56-1.37,5.08-2.08,5.5-1.53,10.02,1.07,15.09,2.93,4.32,1.58,2.61.27,20.29,3.28,12.17,2.07,18.26,3.11,21.16,4.36,7.99,3.45,9.91,8.96,18.96,17.78,27.25,26.55,33.08,30.12,40.52,30.36.9.03,11.37.21,19.18-7.03,13.87-12.86,4.11-34.96,11.73-39,13.21-7.01,53.11,53.76,72.15,45.29,8.27-3.68,9.43-19,18.18-19.19,4.82-.1,5.91,4.51,11.68,5.94,10.35,2.57,16.9-9.81,28.6-14,15.23-5.45,28.01,6.97,53.35,18.14,13.01,5.74,32.46,12.53,58.7,15.44"/><path class="cls-1" d="m184.34,288.38c103.1,27.47,185.32,28.37,217.8,12.88,19.94-9.51,36.55-17.43,41.67-33.75,2.82-9,2.44-21.5,12.56-30.2,4.11-3.54,8.24-4.96,11.6-6.05,27.67-8.98,49.17-11.24,49.17-11.24,22.4-2.35,42.62-4.41,70.57-4.04,30.57.4,35.59,3.24,38.06,4.86,6.42,4.22,13.93,12.27,24.87,11.75,3.34-.16,5.79-1.06,6.74-1.4,18.14-6.39,62-8.83,92.63-8.17,1.21.03-.42.03,48.23,3.62,19.17,1.41,23.63,1.71,30.23,4.15,17.1,6.33,13.37,14.84,35.61,29.78,17.49,11.75,32.28,15.14,38.97,23.62.8,1.01,3.97,5.25,9.5,7.16.96.33,3.48,1.18,6.45.91,4.93-.45,8.16-3.7,12.14-7.61,17.57-17.3,17.1-15.48,19.79-19.57,4.45-6.78,4.61-10.04,8.87-12.02,3.88-1.8,7.32-.75,13.43.26,11.29,1.87,14.6.76,22.35,1.66,11.93,1.38,34.78,7.55,61.52,23.24,31.43,18.43,36.57,31.43,46.52,28.24,16.4-5.27,13.3-44.13,26.75-45.83,1.65-.21,3.3.18,22.13,16,8.86,7.44,13.41,11.49,20.35,17.01,21.06,16.74,24.43,15.48,25.43,14.93,5.35-2.93-.61-16.22,7.7-23.56,3.95-3.5,6.74-1.75,10.09-5.68,5.48-6.41,1.51-15.06,5.58-17.05,3.27-1.6,6.7,3.58,13.52,2.09,2.53-.55,2.56-1.37,5.08-2.08,5.5-1.53,10.02,1.07,15.09,2.93,4.32,1.58,2.61.27,20.29,3.28,12.17,2.07,18.26,3.11,21.16,4.36,7.99,3.45,9.91,8.96,18.96,17.78,27.25,26.55,33.08,30.12,40.52,30.36.9.03,11.37.21,19.18-7.03,13.87-12.86,4.11-34.96,11.73-39,13.21-7.01,53.11,53.76,72.15,45.29,8.27-3.68,9.43-19,18.18-19.19,4.82-.1,5.91,4.51,11.68,5.94,10.35,2.57,16.9-9.81,28.6-14,15.23-5.45,28.01,6.97,53.35,18.14,13.01,5.74,32.46,12.53,58.7,15.44"/><path class="cls-1" d="m1029.92,553.08c103.1,27.47,185.32,28.37,217.8,12.88,19.94-9.51,36.55-17.43,41.67-33.75,2.82-9,2.44-21.5,12.56-30.2,4.11-3.54,8.24-4.96,11.6-6.05,27.67-8.98,49.17-11.24,49.17-11.24,22.4-2.35,42.62-4.41,70.57-4.04,30.57.4,35.59,3.24,38.06,4.86,6.42,4.22,13.93,12.27,24.87,11.75,3.34-.16,5.79-1.06,6.74-1.4,18.14-6.39,62-8.83,92.63-8.17,1.21.03-.42.03,48.23,3.62,19.17,1.41,23.63,1.71,30.23,4.15,17.1,6.33,13.37,14.84,35.61,29.78,17.49,11.75,32.28,15.14,38.97,23.62.8,1.01,3.97,5.25,9.5,7.16.96.33,3.48,1.18,6.45.91,4.93-.45,8.16-3.7,12.14-7.61,17.57-17.3,17.1-15.48,19.79-19.57,4.45-6.78,4.61-10.04,8.87-12.02,3.88-1.8,7.32-.75,13.43.26,11.29,1.87,14.6.76,22.35,1.66,11.93,1.38,34.78,7.55,61.52,23.24,31.43,18.43,36.57,31.43,46.52,28.24,16.4-5.27,13.3-44.13,26.75-45.83,1.65-.21,3.3.18,22.13,16,8.86,7.44,13.41,11.49,20.35,17.01,21.06,16.74,24.43,15.48,25.43,14.93,5.35-2.93-.61-16.22,7.7-23.56,3.95-3.5,6.74-1.75,10.09-5.68,5.48-6.41,1.51-15.06,5.58-17.05,3.27-1.6,6.7,3.58,13.52,2.09,2.53-.55,2.56-1.37,5.08-2.08,5.5-1.53,10.02,1.07,15.09,2.93,4.32,1.58,2.61.27,20.29,3.28,12.17,2.07,18.26,3.11,21.16,4.36,7.99,3.45,9.91,8.96,18.96,17.78,27.25,26.55,33.08,30.12,40.52,30.36.9.03,11.37.21,19.18-7.03,13.87-12.86,4.11-34.96,11.73-39,13.21-7.01,53.11,53.76,72.15,45.29,8.27-3.68,9.43-19,18.18-19.19,4.82-.1,5.91,4.51,11.68,5.94,10.35,2.57,16.9-9.81,28.6-14,15.23-5.45,28.01,6.97,53.35,18.14,13.01,5.74,32.46,12.53,58.7,15.44"/><path class="cls-1" d="m-826.8,546.12c103.1,27.47,185.32,28.37,217.8,12.88,19.94-9.51,36.55-17.43,41.67-33.75,2.82-9,2.44-21.5,12.56-30.2,4.11-3.54,8.24-4.96,11.6-6.05,27.67-8.98,49.17-11.24,49.17-11.24,22.4-2.35,42.62-4.41,70.57-4.04,30.57.4,35.59,3.24,38.06,4.86,6.42,4.22,13.93,12.27,24.87,11.75,3.34-.16,5.79-1.06,6.74-1.4,18.14-6.39,62-8.83,92.63-8.17,1.21.03-.42.03,48.23,3.62,19.17,1.41,23.63,1.71,30.23,4.15,17.1,6.33,13.37,14.84,35.61,29.78,17.49,11.75,32.28,15.14,38.97,23.62.8,1.01,3.97,5.25,9.5,7.16.96.33,3.48,1.18,6.45.91,4.93-.45,8.16-3.7,12.14-7.61,17.57-17.3,17.1-15.48,19.79-19.57,4.45-6.78,4.61-10.04,8.87-12.02,3.88-1.8,7.32-.75,13.43.26,11.29,1.87,14.6.76,22.35,1.66,11.93,1.38,34.78,7.55,61.52,23.24,31.43,18.43,36.57,31.43,46.52,28.24,16.4-5.27,13.3-44.13,26.75-45.83,1.65-.21,3.3.18,22.13,16,8.86,7.44,13.41,11.49,20.35,17.01,21.06,16.74,24.43,15.48,25.43,14.93,5.35-2.93-.61-16.22,7.7-23.56,3.95-3.5,6.74-1.75,10.09-5.68,5.48-6.41,1.51-15.06,5.58-17.05,3.27-1.6,6.7,3.58,13.52,2.09,2.53-.55,2.56-1.37,5.08-2.08,5.5-1.53,10.02,1.07,15.09,2.93,4.32,1.58,2.61.27,20.29,3.28,12.17,2.07,18.26,3.11,21.16,4.36,7.99,3.45,9.91,8.96,18.96,17.78,27.25,26.55,33.08,30.12,40.52,30.36.9.03,11.37.21,19.18-7.03,13.87-12.86,4.11-34.96,11.73-39,13.21-7.01,53.11,53.76,72.15,45.29,8.27-3.68,9.43-19,18.18-19.19,4.82-.1,5.91,4.51,11.68,5.94,10.35,2.57,16.9-9.81,28.6-14,15.23-5.45,28.01,6.97,53.35,18.14,13.01,5.74,32.46,12.53,58.7,15.44"/><path class="cls-1" d="m307.18,1017.11c103.1,27.47,185.32,28.37,217.8,12.88,19.94-9.51,36.55-17.43,41.67-33.75,2.82-9,2.44-21.5,12.56-30.2,4.11-3.54,8.24-4.96,11.6-6.05,27.67-8.98,49.17-11.24,49.17-11.24,22.4-2.35,42.62-4.41,70.57-4.04,30.57.4,35.59,3.24,38.06,4.86,6.42,4.22,13.93,12.27,24.87,11.75,3.34-.16,5.79-1.06,6.74-1.4,18.14-6.39,62-8.83,92.63-8.17,1.21.03-.42.03,48.23,3.62,19.17,1.41,23.63,1.71,30.23,4.15,17.1,6.33,13.37,14.84,35.61,29.78,17.49,11.75,32.28,15.14,38.97,23.62.8,1.01,3.97,5.25,9.5,7.16.96.33,3.48,1.18,6.45.91,4.93-.45,8.16-3.7,12.14-7.61,17.57-17.3,17.1-15.48,19.79-19.57,4.45-6.78,4.61-10.04,8.87-12.02,3.88-1.8,7.32-.75,13.43.26,11.29,1.87,14.6.76,22.35,1.66,11.93,1.38,34.78,7.55,61.52,23.24,31.43,18.43,36.57,31.43,46.52,28.24,16.4-5.27,13.3-44.13,26.75-45.83,1.65-.21,3.3.18,22.13,16,8.86,7.44,13.41,11.49,20.35,17.01,21.06,16.74,24.43,15.48,25.43,14.93,5.35-2.93-.61-16.22,7.7-23.56,3.95-3.5,6.74-1.75,10.09-5.68,5.48-6.41,1.51-15.06,5.58-17.05,3.27-1.6,6.7,3.58,13.52,2.09,2.53-.55,2.56-1.37,5.08-2.08,5.5-1.53,10.02,1.07,15.09,2.93,4.32,1.58,2.61.27,20.29,3.28,12.17,2.07,18.26,3.11,21.16,4.36,7.99,3.45,9.91,8.96,18.96,17.78,27.25,26.55,33.08,30.12,40.52,30.36.9.03,11.37.21,19.18-7.03,13.87-12.86,4.11-34.96,11.73-39,13.21-7.01,53.11,53.76,72.15,45.29,8.27-3.68,9.43-19,18.18-19.19,4.82-.1,5.91,4.51,11.68,5.94,10.35,2.57,16.9-9.81,28.6-14,15.23-5.45,28.01,6.97,53.35,18.14,13.01,5.74,32.46,12.53,58.7,15.44"/><path class="cls-1" d="m-363.92,1127.78c103.1,27.47,185.32,28.37,217.8,12.88,19.94-9.51,36.55-17.43,41.67-33.75,2.82-9,2.44-21.5,12.56-30.2,4.11-3.54,8.24-4.96,11.6-6.05,27.67-8.98,49.17-11.24,49.17-11.24,22.4-2.35,42.62-4.41,70.57-4.04,30.57.4,35.59,3.24,38.06,4.86,6.42,4.22,13.93,12.27,24.87,11.75,3.34-.16,5.79-1.06,6.74-1.4,18.14-6.39,62-8.83,92.63-8.17,1.21.03-.42.03,48.23,3.62,19.17,1.41,23.63,1.71,30.23,4.15,17.1,6.33,13.37,14.84,35.61,29.78,17.49,11.75,32.28,15.14,38.97,23.62.8,1.01,3.97,5.25,9.5,7.16.96.33,3.48,1.18,6.45.91,4.93-.45,8.16-3.7,12.14-7.61,17.57-17.3,17.1-15.48,19.79-19.57,4.45-6.78,4.61-10.04,8.87-12.02,3.88-1.8,7.32-.75,13.43.26,11.29,1.87,14.6.76,22.35,1.66,11.93,1.38,34.78,7.55,61.52,23.24,31.43,18.43,36.57,31.43,46.52,28.24,16.4-5.27,13.3-44.13,26.75-45.83,1.65-.21,3.3.18,22.13,16,8.86,7.44,13.41,11.49,20.35,17.01,21.06,16.74,24.43,15.48,25.43,14.93,5.35-2.93-.61-16.22,7.7-23.56,3.95-3.5,6.74-1.75,10.09-5.68,5.48-6.41,1.51-15.06,5.58-17.05,3.27-1.6,6.7,3.58,13.52,2.09,2.53-.55,2.56-1.37,5.08-2.08,5.5-1.53,10.02,1.07,15.09,2.93,4.32,1.58,2.61.27,20.29,3.28,12.17,2.07,18.26,3.11,21.16,4.36,7.99,3.45,9.91,8.96,18.96,17.78,27.25,26.55,33.08,30.12,40.52,30.36.9.03,11.37.21,19.18-7.03,13.87-12.86,4.11-34.96,11.73-39,13.21-7.01,53.11,53.76,72.15,45.29,8.27-3.68,9.43-19,18.18-19.19,4.82-.1,5.91,4.51,11.68,5.94,10.35,2.57,16.9-9.81,28.6-14,15.23-5.45,28.01,6.97,53.35,18.14,13.01,5.74,32.46,12.53,58.7,15.44"/><path class="cls-1" d="m1160.39,1414.99c103.1,27.47,185.32,28.37,217.8,12.88,19.94-9.51,36.55-17.43,41.67-33.75,2.82-9,2.44-21.5,12.56-30.2,4.11-3.54,8.24-4.96,11.6-6.05,27.67-8.98,49.17-11.24,49.17-11.24,22.4-2.35,42.62-4.41,70.57-4.04,30.57.4,35.59,3.24,38.06,4.86,6.42,4.22,13.93,12.27,24.87,11.75,3.34-.16,5.79-1.06,6.74-1.4,18.14-6.39,62-8.83,92.63-8.17,1.21.03-.42.03,48.23,3.62,19.17,1.41,23.63,1.71,30.23,4.15,17.1,6.33,13.37,14.84,35.61,29.78,17.49,11.75,32.28,15.14,38.97,23.62.8,1.01,3.97,5.25,9.5,7.16.96.33,3.48,1.18,6.45.91,4.93-.45,8.16-3.7,12.14-7.61,17.57-17.3,17.1-15.48,19.79-19.57,4.45-6.78,4.61-10.04,8.87-12.02,3.88-1.8,7.32-.75,13.43.26,11.29,1.87,14.6.76,22.35,1.66,11.93,1.38,34.78,7.55,61.52,23.24,31.43,18.43,36.57,31.43,46.52,28.24,16.4-5.27,13.3-44.13,26.75-45.83,1.65-.21,3.3.18,22.13,16,8.86,7.44,13.41,11.49,20.35,17.01,21.06,16.74,24.43,15.48,25.43,14.93,5.35-2.93-.61-16.22,7.7-23.56,3.95-3.5,6.74-1.75,10.09-5.68,5.48-6.41,1.51-15.06,5.58-17.05,3.27-1.6,6.7,3.58,13.52,2.09,2.53-.55,2.56-1.37,5.08-2.08,5.5-1.53,10.02,1.07,15.09,2.93,4.32,1.58,2.61.27,20.29,3.28,12.17,2.07,18.26,3.11,21.16,4.36,7.99,3.45,9.91,8.96,18.96,17.78,27.25,26.55,33.08,30.12,40.52,30.36.9.03,11.37.21,19.18-7.03,13.87-12.86,4.11-34.96,11.73-39,13.21-7.01,53.11,53.76,72.15,45.29,8.27-3.68,9.43-19,18.18-19.19,4.82-.1,5.91,4.51,11.68,5.94,10.35,2.57,16.9-9.81,28.6-14,15.23-5.45,28.01,6.97,53.35,18.14,13.01,5.74,32.46,12.53,58.7,15.44"/><path class="cls-1" d="m-264.94,1597.02c103.1,27.47,185.32,28.37,217.8,12.88,19.94-9.51,36.55-17.43,41.67-33.75,2.82-9,2.44-21.5,12.56-30.2,4.11-3.54,8.24-4.96,11.6-6.05,27.67-8.98,49.17-11.24,49.17-11.24,22.4-2.35,42.62-4.41,70.57-4.04,30.57.4,35.59,3.24,38.06,4.86,6.42,4.22,13.93,12.27,24.87,11.75,3.34-.16,5.79-1.06,6.74-1.4,18.14-6.39,62-8.83,92.63-8.17,1.21.03-.42.03,48.23,3.62,19.17,1.41,23.63,1.71,30.23,4.15,17.1,6.33,13.37,14.84,35.61,29.78,17.49,11.75,32.28,15.14,38.97,23.62.8,1.01,3.97,5.25,9.5,7.16.96.33,3.48,1.18,6.45.91,4.93-.45,8.16-3.7,12.14-7.61,17.57-17.3,17.1-15.48,19.79-19.57,4.45-6.78,4.61-10.04,8.87-12.02,3.88-1.8,7.32-.75,13.43.26,11.29,1.87,14.6.76,22.35,1.66,11.93,1.38,34.78,7.55,61.52,23.24,31.43,18.43,36.57,31.43,46.52,28.24,16.4-5.27,13.3-44.13,26.75-45.83,1.65-.21,3.3.18,22.13,16,8.86,7.44,13.41,11.49,20.35,17.01,21.06,16.74,24.43,15.48,25.43,14.93,5.35-2.93-.61-16.22,7.7-23.56,3.95-3.5,6.74-1.75,10.09-5.68,5.48-6.41,1.51-15.06,5.58-17.05,3.27-1.6,6.7,3.58,13.52,2.09,2.53-.55,2.56-1.37,5.08-2.08,5.5-1.53,10.02,1.07,15.09,2.93,4.32,1.58,2.61.27,20.29,3.28,12.17,2.07,18.26,3.11,21.16,4.36,7.99,3.45,9.91,8.96,18.96,17.78,27.25,26.55,33.08,30.12,40.52,30.36.9.03,11.37.21,19.18-7.03,13.87-12.86,4.11-34.96,11.73-39,13.21-7.01,53.11,53.76,72.15,45.29,8.27-3.68,9.43-19,18.18-19.19,4.82-.1,5.91,4.51,11.68,5.94,10.35,2.57,16.9-9.81,28.6-14,15.23-5.45,28.01,6.97,53.35,18.14,13.01,5.74,32.46,12.53,58.7,15.44"/><path class="cls-1" d="m517.11,1861.64c103.1,27.47,185.32,28.37,217.8,12.88,19.94-9.51,36.55-17.43,41.67-33.75,2.82-9,2.44-21.5,12.56-30.2,4.11-3.54,8.24-4.96,11.6-6.05,27.67-8.98,49.17-11.24,49.17-11.24,22.4-2.35,42.62-4.41,70.57-4.04,30.57.4,35.59,3.24,38.06,4.86,6.42,4.22,13.93,12.27,24.87,11.75,3.34-.16,5.79-1.06,6.74-1.4,18.14-6.39,62-8.83,92.63-8.17,1.21.03-.42.03,48.23,3.62,19.17,1.41,23.63,1.71,30.23,4.15,17.1,6.33,13.37,14.84,35.61,29.78,17.49,11.75,32.28,15.14,38.97,23.62.8,1.01,3.97,5.25,9.5,7.16.96.33,3.48,1.18,6.45.91,4.93-.45,8.16-3.7,12.14-7.61,17.57-17.3,17.1-15.48,19.79-19.57,4.45-6.78,4.61-10.04,8.87-12.02,3.88-1.8,7.32-.75,13.43.26,11.29,1.87,14.6.76,22.35,1.66,11.93,1.38,34.78,7.55,61.52,23.24,31.43,18.43,36.57,31.43,46.52,28.24,16.4-5.27,13.3-44.13,26.75-45.83,1.65-.21,3.3.18,22.13,16,8.86,7.44,13.41,11.49,20.35,17.01,21.06,16.74,24.43,15.48,25.43,14.93,5.35-2.93-.61-16.22,7.7-23.56,3.95-3.5,6.74-1.75,10.09-5.68,5.48-6.41,1.51-15.06,5.58-17.05,3.27-1.6,6.7,3.58,13.52,2.09,2.53-.55,2.56-1.37,5.08-2.08,5.5-1.53,10.02,1.07,15.09,2.93,4.32,1.58,2.61.27,20.29,3.28,12.17,2.07,18.26,3.11,21.16,4.36,7.99,3.45,9.91,8.96,18.96,17.78,27.25,26.55,33.08,30.12,40.52,30.36.9.03,11.37.21,19.18-7.03,13.87-12.86,4.11-34.96,11.73-39,13.21-7.01,53.11,53.76,72.15,45.29,8.27-3.68,9.43-19,18.18-19.19,4.82-.1,5.91,4.51,11.68,5.94,10.35,2.57,16.9-9.81,28.6-14,15.23-5.45,28.01,6.97,53.35,18.14,13.01,5.74,32.46,12.53,58.7,15.44"/><path class="cls-1" d="m-722.74,1750.98c103.1,27.47,185.32,28.37,217.8,12.88,19.94-9.51,36.55-17.43,41.67-33.75,2.82-9,2.44-21.5,12.56-30.2,4.11-3.54,8.24-4.96,11.6-6.05,27.67-8.98,49.17-11.24,49.17-11.24,22.4-2.35,42.62-4.41,70.57-4.04,30.57.4,35.59,3.24,38.06,4.86,6.42,4.22,13.93,12.27,24.87,11.75,3.34-.16,5.79-1.06,6.74-1.4,18.14-6.39,62-8.83,92.63-8.17,1.21.03-.42.03,48.23,3.62,19.17,1.41,23.63,1.71,30.23,4.15,17.1,6.33,13.37,14.84,35.61,29.78,17.49,11.75,32.28,15.14,38.97,23.62.8,1.01,3.97,5.25,9.5,7.16.96.33,3.48,1.18,6.45.91,4.93-.45,8.16-3.7,12.14-7.61,17.57-17.3,17.1-15.48,19.79-19.57,4.45-6.78,4.61-10.04,8.87-12.02,3.88-1.8,7.32-.75,13.43.26,11.29,1.87,14.6.76,22.35,1.66,11.93,1.38,34.78,7.55,61.52,23.24,31.43,18.43,36.57,31.43,46.52,28.24,16.4-5.27,13.3-44.13,26.75-45.83,1.65-.21,3.3.18,22.13,16,8.86,7.44,13.41,11.49,20.35,17.01,21.06,16.74,24.43,15.48,25.43,14.93,5.35-2.93-.61-16.22,7.7-23.56,3.95-3.5,6.74-1.75,10.09-5.68,5.48-6.41,1.51-15.06,5.58-17.05,3.27-1.6,6.7,3.58,13.52,2.09,2.53-.55,2.56-1.37,5.08-2.08,5.5-1.53,10.02,1.07,15.09,2.93,4.32,1.58,2.61.27,20.29,3.28,12.17,2.07,18.26,3.11,21.16,4.36,7.99,3.45,9.91,8.96,18.96,17.78,27.25,26.55,33.08,30.12,40.52,30.36.9.03,11.37.21,19.18-7.03,13.87-12.86,4.11-34.96,11.73-39,13.21-7.01,53.11,53.76,72.15,45.29,8.27-3.68,9.43-19,18.18-19.19,4.82-.1,5.91,4.51,11.68,5.94,10.35,2.57,16.9-9.81,28.6-14,15.23-5.45,28.01,6.97,53.35,18.14,13.01,5.74,32.46,12.53,58.7,15.44"/><path class="cls-1" d="m-363.92,175.4c103.1,27.47,185.32,28.37,217.8,12.88,19.94-9.51,36.55-17.43,41.67-33.75,2.82-9,2.44-21.5,12.56-30.2,4.11-3.54,8.24-4.96,11.6-6.05,27.67-8.98,49.17-11.24,49.17-11.24,22.4-2.35,42.62-4.41,70.57-4.04,30.57.4,35.59,3.24,38.06,4.86,6.42,4.22,13.93,12.27,24.87,11.75,3.34-.16,5.79-1.06,6.74-1.4,18.14-6.39,62-8.83,92.63-8.17,1.21.03-.42.03,48.23,3.62,19.17,1.41,23.63,1.71,30.23,4.15,17.1,6.33,13.37,14.84,35.61,29.78,17.49,11.75,32.28,15.14,38.97,23.62.8,1.01,3.97,5.25,9.5,7.16.96.33,3.48,1.18,6.45.91,4.93-.45,8.16-3.7,12.14-7.61,17.57-17.3,17.1-15.48,19.79-19.57,4.45-6.78,4.61-10.04,8.87-12.02,3.88-1.8,7.32-.75,13.43.26,11.29,1.87,14.6.76,22.35,1.66,11.93,1.38,34.78,7.55,61.52,23.24,31.43,18.43,36.57,31.43,46.52,28.24,16.4-5.27,13.3-44.13,26.75-45.83,1.65-.21,3.3.18,22.13,16,8.86,7.44,13.41,11.49,20.35,17.01,21.06,16.74,24.43,15.48,25.43,14.93,5.35-2.93-.61-16.22,7.7-23.56,3.95-3.5,6.74-1.75,10.09-5.68,5.48-6.41,1.51-15.06,5.58-17.05,3.27-1.6,6.7,3.58,13.52,2.09,2.53-.55,2.56-1.37,5.08-2.08,5.5-1.53,10.02,1.07,15.09,2.93,4.32,1.58,2.61.27,20.29,3.28,12.17,2.07,18.26,3.11,21.16,4.36,7.99,3.45,9.91,8.96,18.96,17.78,27.25,26.55,33.08,30.12,40.52,30.36.9.03,11.37.21,19.18-7.03,13.87-12.86,4.11-34.96,11.73-39,13.21-7.01,53.11,53.76,72.15,45.29,8.27-3.68,9.43-19,18.18-19.19,4.82-.1,5.91,4.51,11.68,5.94,10.35,2.57,16.9-9.81,28.6-14,15.23-5.45,28.01,6.97,53.35,18.14,13.01,5.74,32.46,12.53,58.7,15.44"/></svg>