<?xml version="1.0" encoding="UTF-8"?><svg id="Ebene_2" xmlns="http://www.w3.org/2000/svg" viewBox="0 0 4678.92 745.12"><defs><style>.cls-1{stroke-width:3px;}.cls-1,.cls-2,.cls-3,.cls-4,.cls-5,.cls-6,.cls-7{fill:none;stroke:#000;stroke-miterlimit:10;}.cls-2{stroke-width:6px;}.cls-3{stroke-width:2px;}.cls-4{stroke-width:4px;}.cls-6{stroke-width:8px;}.cls-7{stroke-width:7px;}</style></defs><g id="Ebene_1-2"><path class="cls-7" d="m1.22,213.69c329.69,105.25,595.94,121.13,703.59,76.09,66.09-27.65,121.17-50.7,140.32-102.77,10.56-28.72,11.3-69.27,45.46-95.85,13.89-10.81,27.49-14.79,38.54-17.79,91.05-24.73,161.07-28.66,161.07-28.66,72.93-4.09,138.78-7.56,229.26-1.98,98.98,6.11,114.8,16.1,122.53,21.74,20.15,14.69,43.19,41.96,78.73,42,10.84.01,18.91-2.52,22.07-3.46,59.77-17.85,202.27-18.82,301.4-11.86,3.92.28-1.38.03,155.69,19.32,61.88,7.6,76.28,9.27,97.28,18.23,54.4,23.2,40.99,50.18,110.68,102.11,54.8,40.84,102.18,54.13,122.53,82.68,2.43,3.4,12.04,17.65,29.65,24.7,3.06,1.23,11.09,4.36,20.75,3.95,16.06-.67,27.04-10.69,40.52-22.73,59.65-53.27,57.84-47.45,67.2-60.28,15.5-21.25,16.51-31.8,30.63-37.55,12.87-5.24,23.82-1.28,43.48,2.96,36.27,7.83,47.18,4.77,72.14,8.89,38.43,6.35,111.48,29.95,195.66,84.98,98.92,64.67,113.54,107.6,146.25,98.82,53.96-14.48,50.06-140.89,93.88-144.27,5.39-.42,10.65,1.09,69.17,55.34,27.52,25.51,41.65,39.35,63.24,58.3,65.6,57.57,76.71,54,80.04,52.37,17.78-8.66.59-52.63,28.66-75.1,13.36-10.7,22.1-4.6,33.6-16.8,18.76-19.89,7.27-48.56,20.75-54.35,10.84-4.65,21.15,12.64,43.48,8.89,8.29-1.39,8.5-4.05,16.8-5.93,18.06-4.09,32.31,5.05,48.42,11.86,13.76,5.82,8.43,1.29,65.22,13.83,39.12,8.64,58.67,12.96,67.86,17.46,25.35,12.43,30.69,30.6,58.63,60.61,84.09,90.31,102.41,102.8,126.49,104.75,2.93.24,36.79,2.48,63.24-19.76,46.95-39.48,18.81-112.61,44.14-124.51,43.9-20.63,163.6,182.53,226.62,158.11,27.37-10.61,33.54-60.07,61.93-59.29,15.62.43,18.45,15.54,36.89,21.08,33.13,9.95,56.28-29.12,94.87-40.84,50.2-15.26,89.65,26.99,169.97,67.2,41.23,20.64,103.19,45.72,187.75,59.29"/><path class="cls-2" d="m1.22,249.52c329.69,105.25,595.94,121.13,703.59,76.09,66.09-27.65,121.17-50.7,140.32-102.77,10.56-28.72,11.3-69.27,45.46-95.85,13.89-10.81,27.49-14.79,38.54-17.79,91.05-24.73,161.07-28.66,161.07-28.66,72.93-4.09,138.78-7.56,229.26-1.98,98.98,6.11,114.8,16.1,122.53,21.74,20.15,14.69,43.19,41.96,78.73,42,10.84.01,18.91-2.52,22.07-3.46,59.77-17.85,202.27-18.82,301.4-11.86,3.92.28-1.38.03,155.69,19.32,61.88,7.6,76.28,9.27,97.28,18.23,54.4,23.2,40.99,50.18,110.68,102.11,54.8,40.84,102.18,54.13,122.53,82.68,2.43,3.4,12.04,17.65,29.65,24.7,3.06,1.23,11.09,4.36,20.75,3.95,16.06-.67,27.04-10.69,40.52-22.73,59.65-53.27,57.84-47.45,67.2-60.28,15.5-21.25,16.51-31.8,30.63-37.55,12.87-5.24,23.82-1.28,43.48,2.96,36.27,7.83,47.18,4.77,72.14,8.89,38.43,6.35,111.48,29.95,195.66,84.98,98.92,64.67,113.54,107.6,146.25,98.82,53.96-14.48,50.06-140.89,93.88-144.27,5.39-.42,10.65,1.09,69.17,55.34,27.52,25.51,41.65,39.35,63.24,58.3,65.6,57.57,76.71,54,80.04,52.37,17.78-8.66.59-52.63,28.66-75.1,13.36-10.7,22.1-4.6,33.6-16.8,18.76-19.89,7.27-48.56,20.75-54.35,10.84-4.65,21.15,12.64,43.48,8.89,8.29-1.39,8.5-4.05,16.8-5.93,18.06-4.09,32.31,5.05,48.42,11.86,13.76,5.82,8.43,1.29,65.22,13.83,39.12,8.64,58.67,12.96,67.86,17.46,25.35,12.43,30.69,30.6,58.63,60.61,84.09,90.31,102.41,102.8,126.49,104.75,2.93.24,36.79,2.48,63.24-19.76,46.95-39.48,18.81-112.61,44.14-124.51,43.9-20.63,163.6,182.53,226.62,158.11,27.37-10.61,33.54-60.07,61.93-59.29,15.62.43,18.45,15.54,36.89,21.08,33.13,9.95,56.28-29.12,94.87-40.84,50.2-15.26,89.65,26.99,169.97,67.2,41.23,20.64,103.19,45.72,187.75,59.29"/><path class="cls-6" d="m1.22,177.86c329.69,105.25,595.94,121.13,703.59,76.09,66.09-27.65,121.17-50.7,140.32-102.77,10.56-28.72,11.3-69.27,45.46-95.85,13.89-10.81,27.49-14.79,38.54-17.79,91.05-24.73,161.07-28.66,161.07-28.66,72.93-4.09,138.78-7.56,229.26-1.98,98.98,6.11,114.8,16.1,122.53,21.74,20.15,14.69,43.19,41.96,78.73,42,10.84.01,18.91-2.52,22.07-3.46,59.77-17.85,202.27-18.82,301.4-11.86,3.92.28-1.38.03,155.69,19.32,61.88,7.6,76.28,9.27,97.28,18.23,54.4,23.2,40.99,50.18,110.68,102.11,54.8,40.84,102.18,54.13,122.53,82.68,2.43,3.4,12.04,17.65,29.65,24.7,3.06,1.23,11.09,4.36,20.75,3.95,16.06-.67,27.04-10.69,40.52-22.73,59.65-53.27,57.84-47.45,67.2-60.28,15.5-21.25,16.51-31.8,30.63-37.55,12.87-5.24,23.82-1.28,43.48,2.96,36.27,7.83,47.18,4.77,72.14,8.89,38.43,6.35,111.48,29.95,195.66,84.98,98.92,64.67,113.54,107.6,146.25,98.82,53.96-14.48,50.06-140.89,93.88-144.27,5.39-.42,10.65,1.09,69.17,55.34,27.52,25.51,41.65,39.35,63.24,58.3,65.6,57.57,76.71,54,80.04,52.37,17.78-8.66.59-52.63,28.66-75.1,13.36-10.7,22.1-4.6,33.6-16.8,18.76-19.89,7.27-48.56,20.75-54.35,10.84-4.65,21.15,12.64,43.48,8.89,8.29-1.39,8.5-4.05,16.8-5.93,18.06-4.09,32.31,5.05,48.42,11.86,13.76,5.82,8.43,1.29,65.22,13.83,39.12,8.64,58.67,12.96,67.86,17.46,25.35,12.43,30.69,30.6,58.63,60.61,84.09,90.31,102.41,102.8,126.49,104.75,2.93.24,36.79,2.48,63.24-19.76,46.95-39.48,18.81-112.61,44.14-124.51,43.9-20.63,163.6,182.53,226.62,158.11,27.37-10.61,33.54-60.07,61.93-59.29,15.62.43,18.45,15.54,36.89,21.08,33.13,9.95,56.28-29.12,94.87-40.84,50.2-15.26,89.65,26.99,169.97,67.2,41.23,20.64,103.19,45.72,187.75,59.29"/><path class="cls-4" d="m1.22,285.35c329.69,105.25,595.94,121.13,703.59,76.09,66.09-27.65,121.17-50.7,140.32-102.77,10.56-28.72,11.3-69.27,45.46-95.85,13.89-10.81,27.49-14.79,38.54-17.79,91.05-24.73,161.07-28.66,161.07-28.66,72.93-4.09,138.78-7.56,229.26-1.98,98.98,6.11,114.8,16.1,122.53,21.74,20.15,14.69,43.19,41.96,78.73,42,10.84.01,18.91-2.52,22.07-3.46,59.77-17.85,202.27-18.82,301.4-11.86,3.92.28-1.38.03,155.69,19.32,61.88,7.6,76.28,9.27,97.28,18.23,54.4,23.2,40.99,50.18,110.68,102.11,54.8,40.84,102.18,54.13,122.53,82.68,2.43,3.4,12.04,17.65,29.65,24.7,3.06,1.23,11.09,4.36,20.75,3.95,16.06-.67,27.04-10.69,40.52-22.73,59.65-53.27,57.84-47.45,67.2-60.28,15.5-21.25,16.51-31.8,30.63-37.55,12.87-5.24,23.82-1.28,43.48,2.96,36.27,7.83,47.18,4.77,72.14,8.89,38.43,6.35,111.48,29.95,195.66,84.98,98.92,64.67,113.54,107.6,146.25,98.82,53.96-14.48,50.06-140.89,93.88-144.27,5.39-.42,10.65,1.09,69.17,55.34,27.52,25.51,41.65,39.35,63.24,58.3,65.6,57.57,76.71,54,80.04,52.37,17.78-8.66.59-52.63,28.66-75.1,13.36-10.7,22.1-4.6,33.6-16.8,18.76-19.89,7.27-48.56,20.75-54.35,10.84-4.65,21.15,12.64,43.48,8.89,8.29-1.39,8.5-4.05,16.8-5.93,18.06-4.09,32.31,5.05,48.42,11.86,13.76,5.82,8.43,1.29,65.22,13.83,39.12,8.64,58.67,12.96,67.86,17.46,25.35,12.43,30.69,30.6,58.63,60.61,84.09,90.31,102.41,102.8,126.49,104.75,2.93.24,36.79,2.48,63.24-19.76,46.95-39.48,18.81-112.61,44.14-124.51,43.9-20.63,163.6,182.53,226.62,158.11,27.37-10.61,33.54-60.07,61.93-59.29,15.62.43,18.45,15.54,36.89,21.08,33.13,9.95,56.28-29.12,94.87-40.84,50.2-15.26,89.65,26.99,169.97,67.2,41.23,20.64,103.19,45.72,187.75,59.29"/><path class="cls-1" d="m1.22,321.18c329.69,105.25,595.94,121.13,703.59,76.09,66.09-27.65,121.17-50.7,140.32-102.77,10.56-28.72,11.3-69.27,45.46-95.85,13.89-10.81,27.49-14.79,38.54-17.79,91.05-24.73,161.07-28.66,161.07-28.66,72.93-4.09,138.78-7.56,229.26-1.98,98.98,6.11,114.8,16.1,122.53,21.74,20.15,14.69,43.19,41.96,78.73,42,10.84.01,18.91-2.52,22.07-3.46,59.77-17.85,202.27-18.82,301.4-11.86,3.92.28-1.38.03,155.69,19.32,61.88,7.6,76.28,9.27,97.28,18.23,54.4,23.2,40.99,50.18,110.68,102.11,54.8,40.84,102.18,54.13,122.53,82.68,2.43,3.4,12.04,17.65,29.65,24.7,3.06,1.23,11.09,4.36,20.75,3.95,16.06-.67,27.04-10.69,40.52-22.73,59.65-53.27,57.84-47.45,67.2-60.28,15.5-21.25,16.51-31.8,30.63-37.55,12.87-5.24,23.82-1.28,43.48,2.96,36.27,7.83,47.18,4.77,72.14,8.89,38.43,6.35,111.48,29.95,195.66,84.98,98.92,64.67,113.54,107.6,146.25,98.82,53.96-14.48,50.06-140.89,93.88-144.27,5.39-.42,10.65,1.09,69.17,55.34,27.52,25.51,41.65,39.35,63.24,58.3,65.6,57.57,76.71,54,80.04,52.37,17.78-8.66.59-52.63,28.66-75.1,13.36-10.7,22.1-4.6,33.6-16.8,18.76-19.89,7.27-48.56,20.75-54.35,10.84-4.65,21.15,12.64,43.48,8.89,8.29-1.39,8.5-4.05,16.8-5.93,18.06-4.09,32.31,5.05,48.42,11.86,13.76,5.82,8.43,1.29,65.22,13.83,39.12,8.64,58.67,12.96,67.86,17.46,25.35,12.43,30.69,30.6,58.63,60.61,84.09,90.31,102.41,102.8,126.49,104.75,2.93.24,36.79,2.48,63.24-19.76,46.95-39.48,18.81-112.61,44.14-124.51,43.9-20.63,163.6,182.53,226.62,158.11,27.37-10.61,33.54-60.07,61.93-59.29,15.62.43,18.45,15.54,36.89,21.08,33.13,9.95,56.28-29.12,94.87-40.84,50.2-15.26,89.65,26.99,169.97,67.2,41.23,20.64,103.19,45.72,187.75,59.29"/><path class="cls-3" d="m1.22,357.01c329.69,105.25,595.94,121.13,703.59,76.09,66.09-27.65,121.17-50.7,140.32-102.77,10.56-28.72,11.3-69.27,45.46-95.85,13.89-10.81,27.49-14.79,38.54-17.79,91.05-24.73,161.07-28.66,161.07-28.66,72.93-4.09,138.78-7.56,229.26-1.98,98.98,6.11,114.8,16.1,122.53,21.74,20.15,14.69,43.19,41.96,78.73,42,10.84.01,18.91-2.52,22.07-3.46,59.77-17.85,202.27-18.82,301.4-11.86,3.92.28-1.38.03,155.69,19.32,61.88,7.6,76.28,9.27,97.28,18.23,54.4,23.2,40.99,50.18,110.68,102.11,54.8,40.84,102.18,54.13,122.53,82.68,2.43,3.4,12.04,17.65,29.65,24.7,3.06,1.23,11.09,4.36,20.75,3.95,16.06-.67,27.04-10.69,40.52-22.73,59.65-53.27,57.84-47.45,67.2-60.28,15.5-21.25,16.51-31.8,30.63-37.55,12.87-5.24,23.82-1.28,43.48,2.96,36.27,7.83,47.18,4.77,72.14,8.89,38.43,6.35,111.48,29.95,195.66,84.98,98.92,64.67,113.54,107.6,146.25,98.82,53.96-14.48,50.06-140.89,93.88-144.27,5.39-.42,10.65,1.09,69.17,55.34,27.52,25.51,41.65,39.35,63.24,58.3,65.6,57.57,76.71,54,80.04,52.37,17.78-8.66.59-52.63,28.66-75.1,13.36-10.7,22.1-4.6,33.6-16.8,18.76-19.89,7.27-48.56,20.75-54.35,10.84-4.65,21.15,12.64,43.48,8.89,8.29-1.39,8.5-4.05,16.8-5.93,18.06-4.09,32.31,5.05,48.42,11.86,13.76,5.82,8.43,1.29,65.22,13.83,39.12,8.64,58.67,12.96,67.86,17.46,25.35,12.43,30.69,30.6,58.63,60.61,84.09,90.31,102.41,102.8,126.49,104.75,2.93.24,36.79,2.48,63.24-19.76,46.95-39.48,18.81-112.61,44.14-124.51,43.9-20.63,163.6,182.53,226.62,158.11,27.37-10.61,33.54-60.07,61.93-59.29,15.62.43,18.45,15.54,36.89,21.08,33.13,9.95,56.28-29.12,94.87-40.84,50.2-15.26,89.65,26.99,169.97,67.2,41.23,20.64,103.19,45.72,187.75,59.29"/><path class="cls-5" d="m1.22,392.83c329.69,105.25,595.94,121.13,703.59,76.09,66.09-27.65,121.17-50.7,140.32-102.77,10.56-28.72,11.3-69.27,45.46-95.85,13.89-10.81,27.49-14.79,38.54-17.79,91.05-24.73,161.07-28.66,161.07-28.66,72.93-4.09,138.78-7.56,229.26-1.98,98.98,6.11,114.8,16.1,122.53,21.74,20.15,14.69,43.19,41.96,78.73,42,10.84.01,18.91-2.52,22.07-3.46,59.77-17.85,202.27-18.82,301.4-11.86,3.92.28-1.38.03,155.69,19.32,61.88,7.6,76.28,9.27,97.28,18.23,54.4,23.2,40.99,50.18,110.68,102.11,54.8,40.84,102.18,54.13,122.53,82.68,2.43,3.4,12.04,17.65,29.65,24.7,3.06,1.23,11.09,4.36,20.75,3.95,16.06-.67,27.04-10.69,40.52-22.73,59.65-53.27,57.84-47.45,67.2-60.28,15.5-21.25,16.51-31.8,30.63-37.55,12.87-5.24,23.82-1.28,43.48,2.96,36.27,7.83,47.18,4.77,72.14,8.89,38.43,6.35,111.48,29.95,195.66,84.98,98.92,64.67,113.54,107.6,146.25,98.82,53.96-14.48,50.06-140.89,93.88-144.27,5.39-.42,10.65,1.09,69.17,55.34,27.52,25.51,41.65,39.35,63.24,58.3,65.6,57.57,76.71,54,80.04,52.37,17.78-8.66.59-52.63,28.66-75.1,13.36-10.7,22.1-4.6,33.6-16.8,18.76-19.89,7.27-48.56,20.75-54.35,10.84-4.65,21.15,12.64,43.48,8.89,8.29-1.39,8.5-4.05,16.8-5.93,18.06-4.09,32.31,5.05,48.42,11.86,13.76,5.82,8.43,1.29,65.22,13.83,39.12,8.64,58.67,12.96,67.86,17.46,25.35,12.43,30.69,30.6,58.63,60.61,84.09,90.31,102.41,102.8,126.49,104.75,2.93.24,36.79,2.48,63.24-19.76,46.95-39.48,18.81-112.61,44.14-124.51,43.9-20.63,163.6,182.53,226.62,158.11,27.37-10.61,33.54-60.07,61.93-59.29,15.62.43,18.45,15.54,36.89,21.08,33.13,9.95,56.28-29.12,94.87-40.84,50.2-15.26,89.65,26.99,169.97,67.2,41.23,20.64,103.19,45.72,187.75,59.29"/></g></svg>