<?xml version="1.0" standalone="no"?>
<!DOCTYPE svg PUBLIC "-//W3C//DTD SVG 20010904//EN"
 "http://www.w3.org/TR/2001/REC-SVG-20010904/DTD/svg10.dtd">
<svg version="1.0" xmlns="http://www.w3.org/2000/svg"
 width="420.000000pt" height="420.000000pt" viewBox="0 0 420.000000 420.000000"
 preserveAspectRatio="xMidYMid meet">
<metadata>
Created by potrace 1.14, written by Peter Selinger 2001-2017
</metadata>
<g transform="translate(0.000000,420.000000) scale(0.100000,-0.100000)"
fill="#000000" stroke="none">
<path d="M2047 3444 c-1 -2 -34 -6 -72 -9 -183 -17 -408 -87 -468 -147 -13
-13 -39 -36 -58 -53 -39 -34 -99 -109 -99 -124 0 -5 -4 -11 -8 -13 -11 -4 -81
-148 -87 -177 -2 -11 -6 -25 -9 -29 -5 -9 -15 -55 -22 -102 -10 -69 -14 -153
-16 -342 -2 -115 -6 -208 -10 -208 -4 0 -13 7 -21 15 -44 43 -95 17 -116 -59
-10 -37 -8 -200 2 -256 3 -14 8 -47 12 -75 4 -27 16 -73 26 -101 17 -45 25
-54 52 -60 18 -4 35 -7 39 -6 4 1 10 -8 12 -21 43 -208 98 -335 205 -478 153
-202 299 -350 392 -396 111 -55 138 -61 299 -70 163 -8 278 28 402 128 163
131 332 295 364 354 10 19 22 35 26 35 5 0 8 6 8 14 0 8 4 16 8 18 7 2 92 163
91 171 0 1 2 9 5 17 2 8 10 32 16 52 10 32 15 37 34 32 14 -3 31 3 48 18 26
23 69 113 84 178 11 49 11 50 14 53 1 1 3 9 5 17 2 8 7 26 10 40 31 119 26
214 -13 250 -18 17 -21 17 -61 -1 -23 -10 -39 -13 -35 -7 7 11 8 18 19 133 3
39 8 84 11 100 3 17 7 41 9 55 2 14 7 50 11 80 5 30 8 116 8 190 0 160 -23
262 -82 369 -39 72 -139 191 -159 191 -7 0 -13 3 -13 8 0 4 -17 16 -37 27 -21
11 -40 22 -43 25 -4 5 -57 31 -70 35 -3 1 -14 5 -25 10 -59 24 -117 45 -137
49 -54 12 -69 15 -76 20 -5 3 -19 7 -33 10 -13 3 -34 7 -45 10 -91 20 -385 42
-397 30z"/>
</g>
</svg>
